# Blender 3.4.0
# www.blender.org
mtllib jigsaw_in.mtl
o Curve
v 0.292462 0.000000 0.292401
v 0.000000 0.000000 0.000000
v 0.292462 0.000000 -0.292401
v 0.292462 0.000000 -0.290920
v 0.292462 0.000000 -0.286647
v 0.292462 0.000000 -0.279837
v 0.292462 0.000000 -0.270741
v 0.292462 0.000000 -0.259616
v 0.292462 0.000000 -0.246713
v 0.292462 0.000000 -0.232288
v 0.292462 0.000000 -0.216593
v 0.292462 0.000000 -0.199883
v 0.292462 0.000000 -0.182412
v 0.292462 0.000000 -0.164433
v 0.292462 0.000000 -0.146200
v 0.289585 0.000000 -0.105282
v 0.281631 0.000000 -0.080799
v 0.269614 0.000000 -0.069388
v 0.254551 0.000000 -0.067685
v 0.237456 0.000000 -0.072328
v 0.219347 0.000000 -0.079953
v 0.201237 0.000000 -0.087198
v 0.184143 0.000000 -0.090698
v 0.169080 0.000000 -0.087092
v 0.157063 0.000000 -0.073016
v 0.149108 0.000000 -0.045106
v 0.146231 0.000000 0.000000
v 0.149108 0.000000 0.045106
v 0.157063 0.000000 0.073016
v 0.169080 0.000000 0.087092
v 0.184143 0.000000 0.090698
v 0.201237 0.000000 0.087198
v 0.219347 0.000000 0.079953
v 0.237457 0.000000 0.072328
v 0.254551 0.000000 0.067685
v 0.269614 0.000000 0.069388
v 0.281631 0.000000 0.080799
v 0.289585 0.000000 0.105282
v 0.292462 0.000000 0.146200
v 0.292462 0.000000 0.156755
v 0.292462 0.000000 0.169721
v 0.292462 0.000000 0.184464
v 0.292462 0.000000 0.200349
v 0.292462 0.000000 0.216741
v 0.292462 0.000000 0.233007
v 0.292462 0.000000 0.248511
v 0.292462 0.000000 0.262619
v 0.292462 0.000000 0.274697
v 0.292462 0.000000 0.284109
v 0.292462 0.000000 0.290222
v 0.292462 -0.021589 0.292401
v 0.000000 -0.021589 0.000000
v 0.292462 -0.021589 -0.292401
v 0.292462 -0.021589 -0.290920
v 0.292462 -0.021589 -0.286647
v 0.292462 -0.021589 -0.279837
v 0.292462 -0.021589 -0.270741
v 0.292462 -0.021589 -0.259616
v 0.292462 -0.021589 -0.246713
v 0.292462 -0.021589 -0.232288
v 0.292462 -0.021589 -0.216593
v 0.292462 -0.021589 -0.199883
v 0.292462 -0.021589 -0.182412
v 0.292462 -0.021589 -0.164433
v 0.292462 -0.021589 -0.146200
v 0.289585 -0.021589 -0.105282
v 0.281631 -0.021589 -0.080799
v 0.269614 -0.021589 -0.069388
v 0.254551 -0.021589 -0.067685
v 0.237456 -0.021589 -0.072328
v 0.219347 -0.021589 -0.079953
v 0.201237 -0.021589 -0.087198
v 0.184143 -0.021589 -0.090698
v 0.169080 -0.021589 -0.087092
v 0.157063 -0.021589 -0.073016
v 0.149108 -0.021589 -0.045106
v 0.146231 -0.021589 0.000000
v 0.149108 -0.021589 0.045106
v 0.157063 -0.021589 0.073016
v 0.169080 -0.021589 0.087092
v 0.184143 -0.021589 0.090698
v 0.201237 -0.021589 0.087198
v 0.219347 -0.021589 0.079953
v 0.237457 -0.021589 0.072328
v 0.254551 -0.021589 0.067685
v 0.269614 -0.021589 0.069388
v 0.281631 -0.021589 0.080799
v 0.289585 -0.021589 0.105282
v 0.292462 -0.021589 0.146200
v 0.292462 -0.021589 0.156755
v 0.292462 -0.021589 0.169721
v 0.292462 -0.021589 0.184464
v 0.292462 -0.021589 0.200349
v 0.292462 -0.021589 0.216741
v 0.292462 -0.021589 0.233007
v 0.292462 -0.021589 0.248511
v 0.292462 -0.021589 0.262619
v 0.292462 -0.021589 0.274697
v 0.292462 -0.021589 0.284109
v 0.292462 -0.021589 0.290222
vn -0.0000 1.0000 -0.0000
vn -0.0000 -1.0000 -0.0000
vn -0.7070 -0.0000 -0.7072
vn 1.0000 -0.0000 -0.0000
vn 0.2328 -0.0000 0.9725
vn 0.9975 -0.0000 0.0701
vn 0.9511 -0.0000 0.3090
vn -0.2006 -0.0000 0.9797
vn -0.3714 -0.0000 0.9285
vn 0.7606 -0.0000 0.6493
vn 0.6886 -0.0000 0.7251
vn -0.3881 -0.0000 0.9216
vn 0.9617 -0.0000 0.2741
vn -0.2621 -0.0000 0.9650
vn 0.1123 -0.0000 0.9937
vn 0.9980 -0.0000 0.0637
vn -0.7070 -0.0000 0.7072
vn 0.9617 -0.0000 -0.2741
vn 0.9980 -0.0000 -0.0637
vn -0.2621 -0.0000 -0.9650
vn 0.1123 -0.0000 -0.9937
vn 0.6886 -0.0000 -0.7251
vn -0.3881 -0.0000 -0.9216
vn 0.7606 -0.0000 -0.6493
vn -0.3714 -0.0000 -0.9285
vn 0.9511 -0.0000 -0.3090
vn 0.2328 -0.0000 -0.9725
vn -0.2006 -0.0000 -0.9797
vn 0.9975 -0.0000 -0.0701
vt 0.000000 0.000000
vt 0.020408 0.000000
vt 0.040816 0.000000
vt 0.061224 0.000000
vt 0.081633 0.000000
vt 0.102041 0.000000
vt 0.122449 0.000000
vt 0.142857 0.000000
vt 0.163265 0.000000
vt 0.183673 0.000000
vt 0.204082 0.000000
vt 0.224490 0.000000
vt 0.244898 0.000000
vt 0.265306 0.000000
vt 0.285714 0.000000
vt 0.306122 0.000000
vt 0.326531 0.000000
vt 0.346939 0.000000
vt 0.367347 0.000000
vt 0.387755 0.000000
vt 0.408163 0.000000
vt 0.428571 0.000000
vt 0.448980 0.000000
vt 0.469388 0.000000
vt 0.489796 0.000000
vt 0.510204 0.000000
vt 0.530612 0.000000
vt 0.551020 0.000000
vt 0.571429 0.000000
vt 0.591837 0.000000
vt 0.612245 0.000000
vt 0.632653 0.000000
vt 0.653061 0.000000
vt 0.673469 0.000000
vt 0.693878 0.000000
vt 0.714286 0.000000
vt 0.734694 0.000000
vt 0.755102 0.000000
vt 0.775510 0.000000
vt 0.795918 0.000000
vt 0.816327 0.000000
vt 0.836735 0.000000
vt 0.857143 0.000000
vt 0.877551 0.000000
vt 0.897959 0.000000
vt 0.918367 0.000000
vt 0.938776 0.000000
vt 0.959184 0.000000
vt 0.979592 0.000000
vt 1.000000 0.000000
vt 0.000000 0.000000
vt 0.020408 0.000000
vt 0.040816 0.000000
vt 0.061224 0.000000
vt 0.081633 0.000000
vt 0.102041 0.000000
vt 0.122449 0.000000
vt 0.142857 0.000000
vt 0.163265 0.000000
vt 0.183673 0.000000
vt 0.204082 0.000000
vt 0.224490 0.000000
vt 0.244898 0.000000
vt 0.265306 0.000000
vt 0.285714 0.000000
vt 0.306122 0.000000
vt 0.326531 0.000000
vt 0.346939 0.000000
vt 0.367347 0.000000
vt 0.387755 0.000000
vt 0.408163 0.000000
vt 0.428571 0.000000
vt 0.448980 0.000000
vt 0.469388 0.000000
vt 0.489796 0.000000
vt 0.510204 0.000000
vt 0.530612 0.000000
vt 0.551020 0.000000
vt 0.571429 0.000000
vt 0.591837 0.000000
vt 0.612245 0.000000
vt 0.632653 0.000000
vt 0.653061 0.000000
vt 0.673469 0.000000
vt 0.693878 0.000000
vt 0.714286 0.000000
vt 0.734694 0.000000
vt 0.755102 0.000000
vt 0.775510 0.000000
vt 0.795918 0.000000
vt 0.816327 0.000000
vt 0.836735 0.000000
vt 0.857143 0.000000
vt 0.877551 0.000000
vt 0.897959 0.000000
vt 0.918367 0.000000
vt 0.938776 0.000000
vt 0.959184 0.000000
vt 0.979592 0.000000
vt 1.000000 0.000000
s 0
usemtl SVGMat.004
f 2/2/1 4/4/1 3/3/1
f 2/2/1 5/5/1 4/4/1
f 2/2/1 6/6/1 5/5/1
f 2/2/1 7/7/1 6/6/1
f 2/2/1 8/8/1 7/7/1
f 2/2/1 9/9/1 8/8/1
f 2/2/1 10/10/1 9/9/1
f 2/2/1 11/11/1 10/10/1
f 2/2/1 12/12/1 11/11/1
f 2/2/1 13/13/1 12/12/1
f 2/2/1 14/14/1 13/13/1
f 2/2/1 24/24/1 14/14/1
f 24/24/1 15/15/1 14/14/1
f 24/24/1 23/23/1 15/15/1
f 23/23/1 16/16/1 15/15/1
f 23/23/1 17/17/1 16/16/1
f 22/22/1 17/17/1 23/23/1
f 21/21/1 17/17/1 22/22/1
f 2/2/1 25/25/1 24/24/1
f 21/21/1 18/18/1 17/17/1
f 20/20/1 18/18/1 21/21/1
f 2/2/1 26/26/1 25/25/1
f 19/19/1 18/18/1 20/20/1
f 2/2/1 27/27/1 26/26/1
f 1/1/1 29/29/1 2/2/1
f 29/29/1 28/28/1 2/2/1
f 28/28/1 27/27/1 2/2/1
f 34/34/1 36/36/1 35/35/1
f 34/34/1 37/37/1 36/36/1
f 33/33/1 37/37/1 34/34/1
f 1/1/1 30/30/1 29/29/1
f 32/32/1 37/37/1 33/33/1
f 32/32/1 38/38/1 37/37/1
f 1/1/1 31/31/1 30/30/1
f 31/31/1 38/38/1 32/32/1
f 1/1/1 38/38/1 31/31/1
f 1/1/1 50/50/1 38/38/1
f 50/50/1 49/49/1 38/38/1
f 49/49/1 48/48/1 38/38/1
f 48/48/1 47/47/1 38/38/1
f 47/47/1 46/46/1 38/38/1
f 46/46/1 45/45/1 38/38/1
f 45/45/1 44/44/1 38/38/1
f 44/44/1 43/43/1 38/38/1
f 43/43/1 42/42/1 38/38/1
f 42/42/1 41/41/1 38/38/1
f 41/41/1 40/40/1 38/38/1
f 40/40/1 39/39/1 38/38/1
f 52/52/2 53/53/2 54/54/2
f 52/52/2 54/54/2 55/55/2
f 52/52/2 55/55/2 56/56/2
f 52/52/2 56/56/2 57/57/2
f 52/52/2 57/57/2 58/58/2
f 52/52/2 58/58/2 59/59/2
f 52/52/2 59/59/2 60/60/2
f 52/52/2 60/60/2 61/61/2
f 52/52/2 61/61/2 62/62/2
f 52/52/2 62/62/2 63/63/2
f 52/52/2 63/63/2 64/64/2
f 52/52/2 64/64/2 74/74/2
f 74/74/2 64/64/2 65/65/2
f 74/74/2 65/65/2 73/73/2
f 73/73/2 65/65/2 66/66/2
f 73/73/2 66/66/2 67/67/2
f 72/72/2 73/73/2 67/67/2
f 71/71/2 72/72/2 67/67/2
f 52/52/2 74/74/2 75/75/2
f 71/71/2 67/67/2 68/68/2
f 70/70/2 71/71/2 68/68/2
f 52/52/2 75/75/2 76/76/2
f 69/69/2 70/70/2 68/68/2
f 52/52/2 76/76/2 77/77/2
f 51/51/2 52/52/2 79/79/2
f 79/79/2 52/52/2 78/78/2
f 78/78/2 52/52/2 77/77/2
f 84/84/2 85/85/2 86/86/2
f 84/84/2 86/86/2 87/87/2
f 83/83/2 84/84/2 87/87/2
f 51/51/2 79/79/2 80/80/2
f 82/82/2 83/83/2 87/87/2
f 82/82/2 87/87/2 88/88/2
f 51/51/2 80/80/2 81/81/2
f 81/81/2 82/82/2 88/88/2
f 51/51/2 81/81/2 88/88/2
f 51/51/2 88/88/2 100/100/2
f 100/100/2 88/88/2 99/99/2
f 99/99/2 88/88/2 98/98/2
f 98/98/2 88/88/2 97/97/2
f 97/97/2 88/88/2 96/96/2
f 96/96/2 88/88/2 95/95/2
f 95/95/2 88/88/2 94/94/2
f 94/94/2 88/88/2 93/93/2
f 93/93/2 88/88/2 92/92/2
f 92/92/2 88/88/2 91/91/2
f 91/91/2 88/88/2 90/90/2
f 90/90/2 88/88/2 89/89/2
f 2/2/3 3/3/3 53/53/3 52/52/3
f 3/3/4 4/4/4 54/54/4 53/53/4
f 4/4/4 5/5/4 55/55/4 54/54/4
f 5/5/4 6/6/4 56/56/4 55/55/4
f 6/6/4 7/7/4 57/57/4 56/56/4
f 7/7/4 8/8/4 58/58/4 57/57/4
f 8/8/4 9/9/4 59/59/4 58/58/4
f 9/9/4 10/10/4 60/60/4 59/59/4
f 10/10/4 11/11/4 61/61/4 60/60/4
f 11/11/4 12/12/4 62/62/4 61/61/4
f 12/12/4 13/13/4 63/63/4 62/62/4
f 13/13/4 14/14/4 64/64/4 63/63/4
f 14/14/4 15/15/4 65/65/4 64/64/4
f 23/23/5 24/24/5 74/74/5 73/73/5
f 15/15/6 16/16/6 66/66/6 65/65/6
f 16/16/7 17/17/7 67/67/7 66/66/7
f 22/22/8 23/23/8 73/73/8 72/72/8
f 21/21/9 22/22/9 72/72/9 71/71/9
f 24/24/10 25/25/10 75/75/10 74/74/10
f 17/17/11 18/18/11 68/68/11 67/67/11
f 20/20/12 21/21/12 71/71/12 70/70/12
f 25/25/13 26/26/13 76/76/13 75/75/13
f 19/19/14 20/20/14 70/70/14 69/69/14
f 18/18/15 19/19/15 69/69/15 68/68/15
f 26/26/16 27/27/16 77/77/16 76/76/16
f 1/1/17 2/2/17 52/52/17 51/51/17
f 28/28/18 29/29/18 79/79/18 78/78/18
f 27/27/19 28/28/19 78/78/19 77/77/19
f 34/34/20 35/35/20 85/85/20 84/84/20
f 35/35/21 36/36/21 86/86/21 85/85/21
f 36/36/22 37/37/22 87/87/22 86/86/22
f 33/33/23 34/34/23 84/84/23 83/83/23
f 29/29/24 30/30/24 80/80/24 79/79/24
f 32/32/25 33/33/25 83/83/25 82/82/25
f 37/37/26 38/38/26 88/88/26 87/87/26
f 30/30/27 31/31/27 81/81/27 80/80/27
f 31/31/28 32/32/28 82/82/28 81/81/28
f 50/50/4 1/1/4 51/51/4 100/100/4
f 49/49/4 50/50/4 100/100/4 99/99/4
f 48/48/4 49/49/4 99/99/4 98/98/4
f 47/47/4 48/48/4 98/98/4 97/97/4
f 46/46/4 47/47/4 97/97/4 96/96/4
f 45/45/4 46/46/4 96/96/4 95/95/4
f 44/44/4 45/45/4 95/95/4 94/94/4
f 43/43/4 44/44/4 94/94/4 93/93/4
f 42/42/4 43/43/4 93/93/4 92/92/4
f 41/41/4 42/42/4 92/92/4 91/91/4
f 40/40/4 41/41/4 91/91/4 90/90/4
f 39/39/4 40/40/4 90/90/4 89/89/4
f 38/38/29 39/39/29 89/89/29 88/88/29
o Curve
v 0.292462 0.000000 0.292401
v 0.000000 0.000000 0.000000
v 0.292462 0.000000 -0.292401
v 0.292462 0.000000 -0.290920
v 0.292462 0.000000 -0.286647
v 0.292462 0.000000 -0.279837
v 0.292462 0.000000 -0.270741
v 0.292462 0.000000 -0.259616
v 0.292462 0.000000 -0.246713
v 0.292462 0.000000 -0.232288
v 0.292462 0.000000 -0.216593
v 0.292462 0.000000 -0.199883
v 0.292462 0.000000 -0.182412
v 0.292462 0.000000 -0.164433
v 0.292462 0.000000 -0.146200
v 0.289585 0.000000 -0.105282
v 0.281631 0.000000 -0.080799
v 0.269614 0.000000 -0.069388
v 0.254551 0.000000 -0.067685
v 0.237456 0.000000 -0.072328
v 0.219347 0.000000 -0.079953
v 0.201237 0.000000 -0.087198
v 0.184143 0.000000 -0.090698
v 0.169080 0.000000 -0.087092
v 0.157063 0.000000 -0.073016
v 0.149108 0.000000 -0.045106
v 0.146231 0.000000 0.000000
v 0.149108 0.000000 0.045106
v 0.157063 0.000000 0.073016
v 0.169080 0.000000 0.087092
v 0.184143 0.000000 0.090698
v 0.201237 0.000000 0.087198
v 0.219347 0.000000 0.079953
v 0.237457 0.000000 0.072328
v 0.254551 0.000000 0.067685
v 0.269614 0.000000 0.069388
v 0.281631 0.000000 0.080799
v 0.289585 0.000000 0.105282
v 0.292462 0.000000 0.146200
v 0.292462 0.000000 0.156755
v 0.292462 0.000000 0.169721
v 0.292462 0.000000 0.184464
v 0.292462 0.000000 0.200349
v 0.292462 0.000000 0.216741
v 0.292462 0.000000 0.233007
v 0.292462 0.000000 0.248511
v 0.292462 0.000000 0.262619
v 0.292462 0.000000 0.274697
v 0.292462 0.000000 0.284109
v 0.292462 0.000000 0.290222
v 0.292462 -0.021589 0.292401
v 0.000000 -0.021589 0.000000
v 0.292462 -0.021589 -0.292401
v 0.292462 -0.021589 -0.290920
v 0.292462 -0.021589 -0.286647
v 0.292462 -0.021589 -0.279837
v 0.292462 -0.021589 -0.270741
v 0.292462 -0.021589 -0.259616
v 0.292462 -0.021589 -0.246713
v 0.292462 -0.021589 -0.232288
v 0.292462 -0.021589 -0.216593
v 0.292462 -0.021589 -0.199883
v 0.292462 -0.021589 -0.182412
v 0.292462 -0.021589 -0.164433
v 0.292462 -0.021589 -0.146200
v 0.289585 -0.021589 -0.105282
v 0.281631 -0.021589 -0.080799
v 0.269614 -0.021589 -0.069388
v 0.254551 -0.021589 -0.067685
v 0.237456 -0.021589 -0.072328
v 0.219347 -0.021589 -0.079953
v 0.201237 -0.021589 -0.087198
v 0.184143 -0.021589 -0.090698
v 0.169080 -0.021589 -0.087092
v 0.157063 -0.021589 -0.073016
v 0.149108 -0.021589 -0.045106
v 0.146231 -0.021589 0.000000
v 0.149108 -0.021589 0.045106
v 0.157063 -0.021589 0.073016
v 0.169080 -0.021589 0.087092
v 0.184143 -0.021589 0.090698
v 0.201237 -0.021589 0.087198
v 0.219347 -0.021589 0.079953
v 0.237457 -0.021589 0.072328
v 0.254551 -0.021589 0.067685
v 0.269614 -0.021589 0.069388
v 0.281631 -0.021589 0.080799
v 0.289585 -0.021589 0.105282
v 0.292462 -0.021589 0.146200
v 0.292462 -0.021589 0.156755
v 0.292462 -0.021589 0.169721
v 0.292462 -0.021589 0.184464
v 0.292462 -0.021589 0.200349
v 0.292462 -0.021589 0.216741
v 0.292462 -0.021589 0.233007
v 0.292462 -0.021589 0.248511
v 0.292462 -0.021589 0.262619
v 0.292462 -0.021589 0.274697
v 0.292462 -0.021589 0.284109
v 0.292462 -0.021589 0.290222
vn -0.0000 1.0000 -0.0000
vn -0.0000 -1.0000 -0.0000
vn -0.7070 -0.0000 -0.7072
vn 1.0000 -0.0000 -0.0000
vn 0.2328 -0.0000 0.9725
vn 0.9975 -0.0000 0.0701
vn 0.9511 -0.0000 0.3090
vn -0.2006 -0.0000 0.9797
vn -0.3714 -0.0000 0.9285
vn 0.7606 -0.0000 0.6493
vn 0.6886 -0.0000 0.7251
vn -0.3881 -0.0000 0.9216
vn 0.9617 -0.0000 0.2741
vn -0.2621 -0.0000 0.9650
vn 0.1123 -0.0000 0.9937
vn 0.9980 -0.0000 0.0637
vn -0.7070 -0.0000 0.7072
vn 0.9617 -0.0000 -0.2741
vn 0.9980 -0.0000 -0.0637
vn -0.2621 -0.0000 -0.9650
vn 0.1123 -0.0000 -0.9937
vn 0.6886 -0.0000 -0.7251
vn -0.3881 -0.0000 -0.9216
vn 0.7606 -0.0000 -0.6493
vn -0.3714 -0.0000 -0.9285
vn 0.9511 -0.0000 -0.3090
vn 0.2328 -0.0000 -0.9725
vn -0.2006 -0.0000 -0.9797
vn 0.9975 -0.0000 -0.0701
vt 0.000000 0.000000
vt 0.020408 0.000000
vt 0.040816 0.000000
vt 0.061224 0.000000
vt 0.081633 0.000000
vt 0.102041 0.000000
vt 0.122449 0.000000
vt 0.142857 0.000000
vt 0.163265 0.000000
vt 0.183673 0.000000
vt 0.204082 0.000000
vt 0.224490 0.000000
vt 0.244898 0.000000
vt 0.265306 0.000000
vt 0.285714 0.000000
vt 0.306122 0.000000
vt 0.326531 0.000000
vt 0.346939 0.000000
vt 0.367347 0.000000
vt 0.387755 0.000000
vt 0.408163 0.000000
vt 0.428571 0.000000
vt 0.448980 0.000000
vt 0.469388 0.000000
vt 0.489796 0.000000
vt 0.510204 0.000000
vt 0.530612 0.000000
vt 0.551020 0.000000
vt 0.571429 0.000000
vt 0.591837 0.000000
vt 0.612245 0.000000
vt 0.632653 0.000000
vt 0.653061 0.000000
vt 0.673469 0.000000
vt 0.693878 0.000000
vt 0.714286 0.000000
vt 0.734694 0.000000
vt 0.755102 0.000000
vt 0.775510 0.000000
vt 0.795918 0.000000
vt 0.816327 0.000000
vt 0.836735 0.000000
vt 0.857143 0.000000
vt 0.877551 0.000000
vt 0.897959 0.000000
vt 0.918367 0.000000
vt 0.938776 0.000000
vt 0.959184 0.000000
vt 0.979592 0.000000
vt 1.000000 0.000000
vt 0.000000 0.000000
vt 0.020408 0.000000
vt 0.040816 0.000000
vt 0.061224 0.000000
vt 0.081633 0.000000
vt 0.102041 0.000000
vt 0.122449 0.000000
vt 0.142857 0.000000
vt 0.163265 0.000000
vt 0.183673 0.000000
vt 0.204082 0.000000
vt 0.224490 0.000000
vt 0.244898 0.000000
vt 0.265306 0.000000
vt 0.285714 0.000000
vt 0.306122 0.000000
vt 0.326531 0.000000
vt 0.346939 0.000000
vt 0.367347 0.000000
vt 0.387755 0.000000
vt 0.408163 0.000000
vt 0.428571 0.000000
vt 0.448980 0.000000
vt 0.469388 0.000000
vt 0.489796 0.000000
vt 0.510204 0.000000
vt 0.530612 0.000000
vt 0.551020 0.000000
vt 0.571429 0.000000
vt 0.591837 0.000000
vt 0.612245 0.000000
vt 0.632653 0.000000
vt 0.653061 0.000000
vt 0.673469 0.000000
vt 0.693878 0.000000
vt 0.714286 0.000000
vt 0.734694 0.000000
vt 0.755102 0.000000
vt 0.775510 0.000000
vt 0.795918 0.000000
vt 0.816327 0.000000
vt 0.836735 0.000000
vt 0.857143 0.000000
vt 0.877551 0.000000
vt 0.897959 0.000000
vt 0.918367 0.000000
vt 0.938776 0.000000
vt 0.959184 0.000000
vt 0.979592 0.000000
vt 1.000000 0.000000
s 0
usemtl SVGMat.004
f 102/102/30 104/104/30 103/103/30
f 102/102/30 105/105/30 104/104/30
f 102/102/30 106/106/30 105/105/30
f 102/102/30 107/107/30 106/106/30
f 102/102/30 108/108/30 107/107/30
f 102/102/30 109/109/30 108/108/30
f 102/102/30 110/110/30 109/109/30
f 102/102/30 111/111/30 110/110/30
f 102/102/30 112/112/30 111/111/30
f 102/102/30 113/113/30 112/112/30
f 102/102/30 114/114/30 113/113/30
f 102/102/30 124/124/30 114/114/30
f 124/124/30 115/115/30 114/114/30
f 124/124/30 123/123/30 115/115/30
f 123/123/30 116/116/30 115/115/30
f 123/123/30 117/117/30 116/116/30
f 122/122/30 117/117/30 123/123/30
f 121/121/30 117/117/30 122/122/30
f 102/102/30 125/125/30 124/124/30
f 121/121/30 118/118/30 117/117/30
f 120/120/30 118/118/30 121/121/30
f 102/102/30 126/126/30 125/125/30
f 119/119/30 118/118/30 120/120/30
f 102/102/30 127/127/30 126/126/30
f 101/101/30 129/129/30 102/102/30
f 129/129/30 128/128/30 102/102/30
f 128/128/30 127/127/30 102/102/30
f 134/134/30 136/136/30 135/135/30
f 134/134/30 137/137/30 136/136/30
f 133/133/30 137/137/30 134/134/30
f 101/101/30 130/130/30 129/129/30
f 132/132/30 137/137/30 133/133/30
f 132/132/30 138/138/30 137/137/30
f 101/101/30 131/131/30 130/130/30
f 131/131/30 138/138/30 132/132/30
f 101/101/30 138/138/30 131/131/30
f 101/101/30 150/150/30 138/138/30
f 150/150/30 149/149/30 138/138/30
f 149/149/30 148/148/30 138/138/30
f 148/148/30 147/147/30 138/138/30
f 147/147/30 146/146/30 138/138/30
f 146/146/30 145/145/30 138/138/30
f 145/145/30 144/144/30 138/138/30
f 144/144/30 143/143/30 138/138/30
f 143/143/30 142/142/30 138/138/30
f 142/142/30 141/141/30 138/138/30
f 141/141/30 140/140/30 138/138/30
f 140/140/30 139/139/30 138/138/30
f 152/152/31 153/153/31 154/154/31
f 152/152/31 154/154/31 155/155/31
f 152/152/31 155/155/31 156/156/31
f 152/152/31 156/156/31 157/157/31
f 152/152/31 157/157/31 158/158/31
f 152/152/31 158/158/31 159/159/31
f 152/152/31 159/159/31 160/160/31
f 152/152/31 160/160/31 161/161/31
f 152/152/31 161/161/31 162/162/31
f 152/152/31 162/162/31 163/163/31
f 152/152/31 163/163/31 164/164/31
f 152/152/31 164/164/31 174/174/31
f 174/174/31 164/164/31 165/165/31
f 174/174/31 165/165/31 173/173/31
f 173/173/31 165/165/31 166/166/31
f 173/173/31 166/166/31 167/167/31
f 172/172/31 173/173/31 167/167/31
f 171/171/31 172/172/31 167/167/31
f 152/152/31 174/174/31 175/175/31
f 171/171/31 167/167/31 168/168/31
f 170/170/31 171/171/31 168/168/31
f 152/152/31 175/175/31 176/176/31
f 169/169/31 170/170/31 168/168/31
f 152/152/31 176/176/31 177/177/31
f 151/151/31 152/152/31 179/179/31
f 179/179/31 152/152/31 178/178/31
f 178/178/31 152/152/31 177/177/31
f 184/184/31 185/185/31 186/186/31
f 184/184/31 186/186/31 187/187/31
f 183/183/31 184/184/31 187/187/31
f 151/151/31 179/179/31 180/180/31
f 182/182/31 183/183/31 187/187/31
f 182/182/31 187/187/31 188/188/31
f 151/151/31 180/180/31 181/181/31
f 181/181/31 182/182/31 188/188/31
f 151/151/31 181/181/31 188/188/31
f 151/151/31 188/188/31 200/200/31
f 200/200/31 188/188/31 199/199/31
f 199/199/31 188/188/31 198/198/31
f 198/198/31 188/188/31 197/197/31
f 197/197/31 188/188/31 196/196/31
f 196/196/31 188/188/31 195/195/31
f 195/195/31 188/188/31 194/194/31
f 194/194/31 188/188/31 193/193/31
f 193/193/31 188/188/31 192/192/31
f 192/192/31 188/188/31 191/191/31
f 191/191/31 188/188/31 190/190/31
f 190/190/31 188/188/31 189/189/31
f 102/102/32 103/103/32 153/153/32 152/152/32
f 103/103/33 104/104/33 154/154/33 153/153/33
f 104/104/33 105/105/33 155/155/33 154/154/33
f 105/105/33 106/106/33 156/156/33 155/155/33
f 106/106/33 107/107/33 157/157/33 156/156/33
f 107/107/33 108/108/33 158/158/33 157/157/33
f 108/108/33 109/109/33 159/159/33 158/158/33
f 109/109/33 110/110/33 160/160/33 159/159/33
f 110/110/33 111/111/33 161/161/33 160/160/33
f 111/111/33 112/112/33 162/162/33 161/161/33
f 112/112/33 113/113/33 163/163/33 162/162/33
f 113/113/33 114/114/33 164/164/33 163/163/33
f 114/114/33 115/115/33 165/165/33 164/164/33
f 123/123/34 124/124/34 174/174/34 173/173/34
f 115/115/35 116/116/35 166/166/35 165/165/35
f 116/116/36 117/117/36 167/167/36 166/166/36
f 122/122/37 123/123/37 173/173/37 172/172/37
f 121/121/38 122/122/38 172/172/38 171/171/38
f 124/124/39 125/125/39 175/175/39 174/174/39
f 117/117/40 118/118/40 168/168/40 167/167/40
f 120/120/41 121/121/41 171/171/41 170/170/41
f 125/125/42 126/126/42 176/176/42 175/175/42
f 119/119/43 120/120/43 170/170/43 169/169/43
f 118/118/44 119/119/44 169/169/44 168/168/44
f 126/126/45 127/127/45 177/177/45 176/176/45
f 101/101/46 102/102/46 152/152/46 151/151/46
f 128/128/47 129/129/47 179/179/47 178/178/47
f 127/127/48 128/128/48 178/178/48 177/177/48
f 134/134/49 135/135/49 185/185/49 184/184/49
f 135/135/50 136/136/50 186/186/50 185/185/50
f 136/136/51 137/137/51 187/187/51 186/186/51
f 133/133/52 134/134/52 184/184/52 183/183/52
f 129/129/53 130/130/53 180/180/53 179/179/53
f 132/132/54 133/133/54 183/183/54 182/182/54
f 137/137/55 138/138/55 188/188/55 187/187/55
f 130/130/56 131/131/56 181/181/56 180/180/56
f 131/131/57 132/132/57 182/182/57 181/181/57
f 150/150/33 101/101/33 151/151/33 200/200/33
f 149/149/33 150/150/33 200/200/33 199/199/33
f 148/148/33 149/149/33 199/199/33 198/198/33
f 147/147/33 148/148/33 198/198/33 197/197/33
f 146/146/33 147/147/33 197/197/33 196/196/33
f 145/145/33 146/146/33 196/196/33 195/195/33
f 144/144/33 145/145/33 195/195/33 194/194/33
f 143/143/33 144/144/33 194/194/33 193/193/33
f 142/142/33 143/143/33 193/193/33 192/192/33
f 141/141/33 142/142/33 192/192/33 191/191/33
f 140/140/33 141/141/33 191/191/33 190/190/33
f 139/139/33 140/140/33 190/190/33 189/189/33
f 138/138/58 139/139/58 189/189/58 188/188/58
