# Blender 3.4.0
# www.blender.org
mtllib jigsaw_flat.mtl
o Curve.002
v 0.292462 0.000000 -0.292401
v 0.000000 0.000000 0.000000
v 0.292462 0.000000 0.292401
v 0.292462 0.000000 0.146200
v 0.292462 0.000000 -0.018275
v 0.292462 0.000000 -0.146200
v 0.292462 0.000000 -0.292401
v 0.277195 0.000000 -0.277137
v 0.000000 -0.021589 0.000000
v 0.292462 -0.021589 0.292401
v 0.292462 -0.021589 0.146200
v 0.292462 -0.021589 -0.018275
v 0.292462 -0.021589 -0.146200
v 0.292462 -0.021589 -0.292401
vn -0.0000 1.0000 -0.0000
vn -0.0000 -1.0000 -0.0000
vn -0.7070 -0.0000 -0.7072
vn 1.0000 -0.0000 -0.0000
vn -0.7070 -0.0000 0.7072
vt 0.166667 0.000000
vt 0.333333 0.000000
vt 0.500000 0.000000
vt 0.666667 0.000000
vt 0.833333 0.000000
vt 1.000000 0.000000
vt 0.166667 0.000000
vt 0.333333 0.000000
vt 0.500000 0.000000
vt 0.666667 0.000000
vt 0.833333 0.000000
vt 1.000000 0.000000
s 0
usemtl SVGMat.004
f 2/1/1 6/5/1 7/6/1
f 2/1/1 5/4/1 6/5/1
f 2/1/1 4/3/1 5/4/1
f 3/2/1 4/3/1 2/1/1
f 9/7/2 14/12/2 13/11/2
f 9/7/2 13/11/2 12/10/2
f 9/7/2 12/10/2 11/9/2
f 10/8/2 9/7/2 11/9/2
f 2/1/3 7/6/3 14/12/3 9/7/3
f 7/6/4 6/5/4 13/11/4 14/12/4
f 6/5/4 5/4/4 12/10/4 13/11/4
f 5/4/4 4/3/4 11/9/4 12/10/4
f 3/2/5 2/1/5 9/7/5 10/8/5
f 4/3/4 3/2/4 10/8/4 11/9/4
o Curve.002
v 0.292462 0.000000 -0.292401
v 0.000000 0.000000 0.000000
v 0.292462 0.000000 0.292401
v 0.292462 0.000000 0.146200
v 0.292462 0.000000 -0.018275
v 0.292462 0.000000 -0.146200
v 0.292462 0.000000 -0.292401
v 0.277195 0.000000 -0.277137
v 0.000000 -0.021589 0.000000
v 0.292462 -0.021589 0.292401
v 0.292462 -0.021589 0.146200
v 0.292462 -0.021589 -0.018275
v 0.292462 -0.021589 -0.146200
v 0.292462 -0.021589 -0.292401
vn -0.0000 1.0000 -0.0000
vn -0.0000 -1.0000 -0.0000
vn -0.7070 -0.0000 -0.7072
vn 1.0000 -0.0000 -0.0000
vn -0.7070 -0.0000 0.7072
vt 0.166667 0.000000
vt 0.333333 0.000000
vt 0.500000 0.000000
vt 0.666667 0.000000
vt 0.833333 0.000000
vt 1.000000 0.000000
vt 0.166667 0.000000
vt 0.333333 0.000000
vt 0.500000 0.000000
vt 0.666667 0.000000
vt 0.833333 0.000000
vt 1.000000 0.000000
s 0
usemtl SVGMat.004
f 16/13/6 20/17/6 21/18/6
f 16/13/6 19/16/6 20/17/6
f 16/13/6 18/15/6 19/16/6
f 17/14/6 18/15/6 16/13/6
f 23/19/7 28/24/7 27/23/7
f 23/19/7 27/23/7 26/22/7
f 23/19/7 26/22/7 25/21/7
f 24/20/7 23/19/7 25/21/7
f 16/13/8 21/18/8 28/24/8 23/19/8
f 21/18/9 20/17/9 27/23/9 28/24/9
f 20/17/9 19/16/9 26/22/9 27/23/9
f 19/16/9 18/15/9 25/21/9 26/22/9
f 17/14/10 16/13/10 23/19/10 24/20/10
f 18/15/9 17/14/9 24/20/9 25/21/9
